<?xml version="1.0" standalone="no"?>
<!DOCTYPE svg PUBLIC "-//W3C//DTD SVG 20010904//EN"
 "http://www.w3.org/TR/2001/REC-SVG-20010904/DTD/svg10.dtd">
<svg version="1.0" xmlns="http://www.w3.org/2000/svg"
 width="1024.000000pt" height="150.000000pt" viewBox="0 0 1024.000000 150.000000"
 preserveAspectRatio="xMidYMid meet">

<g transform="translate(0.000000,150.000000) scale(0.100000,-0.100000)"
fill="#000000" stroke="none">
<path d="M190 815 l0 -395 443 0 c458 0 495 3 551 43 63 45 90 181 51 267 -18
39 -92 100 -122 100 -27 0 -12 17 26 29 43 12 97 67 107 107 11 43 -1 133 -22
162 -11 15 -42 38 -70 52 l-49 25 -457 3 -458 3 0 -396z m671 205 c22 -12 27
-68 7 -88 -8 -8 -60 -12 -170 -12 l-158 0 0 48 c0 27 3 52 7 55 11 11 293 8
314 -3z m-11 -279 c22 -6 25 -13 28 -63 4 -77 -2 -79 -185 -76 l-148 3 -3 59
c-2 32 -1 65 2 72 4 11 35 14 143 13 76 -1 149 -4 163 -8z"/>
<path d="M1641 1199 c-85 -11 -165 -51 -201 -101 -44 -60 -54 -123 -48 -310 6
-184 16 -218 84 -278 92 -80 167 -92 540 -88 276 3 292 5 348 27 71 28 133 82
157 136 16 34 19 68 19 239 0 182 -2 204 -21 242 -35 72 -114 115 -254 135
-74 11 -537 9 -624 -2z m470 -219 c29 -6 63 -20 75 -31 45 -42 54 -175 16
-240 -30 -53 -65 -64 -213 -67 -120 -3 -142 -1 -183 16 -69 31 -88 68 -84 169
3 75 6 84 32 112 17 18 46 34 70 40 57 12 222 13 287 1z"/>
<path d="M2698 1204 c-5 -4 -8 -183 -8 -397 l0 -389 423 5 c446 5 483 8 573
55 52 26 91 73 99 115 4 18 5 128 3 243 -3 210 -3 211 -29 245 -15 19 -49 47
-76 61 -100 55 -143 60 -578 65 -220 3 -403 2 -407 -3z m718 -237 c23 -27 24
-35 24 -155 0 -145 -7 -165 -68 -182 -20 -5 -106 -10 -189 -10 l-153 0 0 191
0 190 181 -3 181 -3 24 -28z"/>
<path d="M3880 1202 c0 -4 88 -113 195 -242 l194 -235 3 -150 3 -150 158 -3
157 -3 0 148 0 148 200 239 c110 132 200 243 200 248 0 4 -72 8 -159 8 l-159
0 -132 -145 -132 -145 -17 22 c-9 13 -57 78 -105 146 l-88 122 -159 0 c-87 0
-159 -3 -159 -8z"/>
<path d="M5087 1203 c-4 -3 -7 -44 -7 -90 l0 -83 150 0 150 0 0 -305 0 -305
175 0 175 0 2 303 3 302 163 3 163 2 -3 88 -3 87 -481 3 c-264 1 -484 -1 -487
-5z"/>
<path d="M6210 815 l0 -395 430 0 430 0 0 100 0 100 -265 0 -265 0 0 60 0 60
255 0 255 0 0 85 0 85 -255 0 -255 0 0 45 0 45 268 2 267 3 0 100 0 100 -432
3 -433 2 0 -395z"/>
<path d="M7443 1200 c-95 -19 -192 -102 -214 -183 -7 -25 -10 -110 -7 -217 3
-159 5 -178 25 -210 54 -86 145 -142 261 -160 44 -7 180 -10 354 -8 281 3 283
3 338 29 107 50 170 128 170 209 l0 40 -164 0 c-153 0 -165 -1 -171 -19 -12
-40 -63 -51 -226 -51 -134 0 -158 3 -196 21 -72 35 -83 57 -83 166 0 157 35
183 250 183 200 0 271 -25 286 -100 l7 -30 148 0 c141 0 148 1 154 21 12 36
-5 132 -30 175 -33 57 -120 114 -198 131 -70 14 -632 17 -704 3z"/>
<path d="M8527 1203 c-4 -3 -7 -181 -7 -395 l0 -388 160 0 160 0 0 170 0 170
190 0 190 0 0 -170 0 -170 175 0 175 0 0 395 0 395 -172 -2 -173 -3 -5 -130
-5 -130 -185 0 -185 0 -3 133 -3 132 -153 0 c-84 0 -156 -3 -159 -7z"/>
<path d="M9790 1197 c-36 -18 -70 -74 -70 -116 0 -125 168 -175 237 -72 42 62
18 155 -47 188 -32 16 -88 16 -120 0z m136 -28 c35 -33 48 -81 34 -124 -17
-50 -53 -75 -111 -75 -39 0 -52 5 -77 30 -39 38 -47 78 -28 124 30 73 127 97
182 45z"/>
<path d="M9807 1153 c-11 -10 -8 -133 3 -133 6 0 10 14 10 30 0 40 22 39 54
-2 28 -37 47 -32 23 6 -14 21 -14 26 -2 36 23 19 18 49 -11 60 -29 11 -68 13
-77 3z m80 -29 c7 -19 -13 -34 -44 -34 -18 0 -23 6 -23 25 0 21 5 25 30 25 19
0 33 -6 37 -16z"/>
</g>
</svg>
